<svg height="512pt" style="fill: white;" viewBox="0 0 512 512" width="512pt" xmlns="http://www.w3.org/2000/svg"><path d="m354 292h-40c-5.523438 0-10 4.476562-10 10s4.476562 10 10 10h40c5.523438 0 10-4.476562 10-10s-4.476562-10-10-10zm0 0"/><path d="m214 312h60c5.523438 0 10-4.476562 10-10s-4.476562-10-10-10h-60c-5.523438 0-10 4.476562-10 10s4.476562 10 10 10zm0 0"/><path d="m454 292h-60c-5.523438 0-10 4.476562-10 10s4.476562 10 10 10h60c5.523438 0 10-4.476562 10-10s-4.476562-10-10-10zm0 0"/><path d="m384 262c0 5.523438 4.476562 10 10 10h60c5.523438 0 10-4.476562 10-10s-4.476562-10-10-10h-60c-5.523438 0-10 4.476562-10 10zm0 0"/><path d="m314 252c-5.523438 0-10 4.476562-10 10s4.476562 10 10 10h40c5.523438 0 10-4.476562 10-10s-4.476562-10-10-10zm0 0"/><path d="m214 272h60c5.523438 0 10-4.476562 10-10s-4.476562-10-10-10h-60c-5.523438 0-10 4.476562-10 10s4.476562 10 10 10zm0 0"/><path d="m50 126c-5.511719 0-10 4.488281-10 10s4.488281 10 10 10 10-4.488281 10-10-4.488281-10-10-10zm0 0"/><path d="m130 126h-40c-5.511719 0-10 4.488281-10 10s4.488281 10 10 10h40c5.511719 0 10-4.488281 10-10s-4.488281-10-10-10zm0 0"/><path d="m130 166h-40c-5.511719 0-10 4.488281-10 10s4.488281 10 10 10h40c5.511719 0 10-4.488281 10-10s-4.488281-10-10-10zm0 0"/><path d="m50 166c-5.511719 0-10 4.488281-10 10s4.488281 10 10 10 10-4.488281 10-10-4.488281-10-10-10zm0 0"/><path d="m130 206h-40c-5.511719 0-10 4.488281-10 10s4.488281 10 10 10h40c5.511719 0 10-4.488281 10-10s-4.488281-10-10-10zm0 0"/><path d="m50 206c-5.511719 0-10 4.488281-10 10s4.488281 10 10 10 10-4.488281 10-10-4.488281-10-10-10zm0 0"/><path d="m50 246c-5.511719 0-10 4.488281-10 10s4.488281 10 10 10 10-4.488281 10-10-4.488281-10-10-10zm0 0"/><path d="m130 246h-40c-5.511719 0-10 4.488281-10 10s4.488281 10 10 10h40c5.511719 0 10-4.488281 10-10s-4.488281-10-10-10zm0 0"/><path d="m50 286c-5.511719 0-10 4.488281-10 10s4.488281 10 10 10 10-4.488281 10-10-4.488281-10-10-10zm0 0"/><path d="m130 286h-40c-5.511719 0-10 4.488281-10 10s4.488281 10 10 10h40c5.511719 0 10-4.488281 10-10s-4.488281-10-10-10zm0 0"/><path d="m238.5 452c-5.511719 0-10 4.488281-10 10s4.488281 10 10 10c5.519531 0 10-4.488281 10-10s-4.480469-10-10-10zm0 0"/><path d="m461.988281 0h-411.976562c-27.578125 0-50.011719 22.433594-50.011719 50.011719v331.988281c0 27.570312 22.429688 50 50 50h135.496094c-2.320313 11.398438-12.421875 20-24.496094 20-24.8125 0-45 20.1875-45 45v5c0 5.523438 4.476562 10 10 10h260c5.523438 0 10-4.476562 10-10v-5c0-24.8125-20.1875-45-45-45-12.074219 0-22.175781-8.601562-24.496094-20h135.496094c27.570312 0 50-22.429688 50-50v-331.988281c0-27.578125-22.433594-50.011719-50.011719-50.011719zm-441.988281 50.011719c0-16.546875 13.464844-30.011719 30.011719-30.011719h55.226562l9.757813 20h-24.996094c-5.511719 0-10 4.488281-10 10s4.488281 10 10 10h34.753906l9.753906 20h-114.507812zm0 49.988281h140v232h-140zm331 372c12.074219 0 22.175781 8.605469 24.496094 20h-238.992188c2.320313-11.394531 12.421875-20 24.496094-20 23.121094 0 42.230469-17.53125 44.722656-40h100.554688c.816406 7.34375 3.414062 14.152344 7.335937 20h-35.113281c-5.511719 0-10 4.488281-10 10s4.488281 10 10 10zm141-90c0 16.542969-13.457031 30-30 30h-412c-16.542969 0-30-13.457031-30-30v-30h472zm0-50h-311.910156v-232h311.910156zm0-252h-335.238281l-29.269531-60h334.496093c16.546875 0 30.011719 13.464844 30.011719 30.011719zm0 0"/><path d="m50 40c-5.511719 0-10 4.488281-10 10s4.488281 10 10 10 10-4.488281 10-10-4.488281-10-10-10zm0 0"/><path d="m471 50c0 5.523438-4.476562 10-10 10s-10-4.476562-10-10 4.476562-10 10-10 10 4.476562 10 10zm0 0"/><path d="m391 50c0 5.523438-4.476562 10-10 10s-10-4.476562-10-10 4.476562-10 10-10 10 4.476562 10 10zm0 0"/><path d="m431 50c0 5.523438-4.476562 10-10 10s-10-4.476562-10-10 4.476562-10 10-10 10 4.476562 10 10zm0 0"/><path d="m220.378906 215.214844c5.320313 4.558594 12.257813 6.839844 20.820313 6.839844 8.796875 0 16.019531-2.238282 21.660156-6.71875 5.640625-4.480469 8.460937-10.601563 8.460937-18.363282 0-3.4375-.722656-5.777344-2.160156-7.019531-1.441406-1.238281-3.882812-1.859375-7.320312-1.859375-5.84375 0-8.921875 1.882812-9.242188 5.640625-.160156 1.679687-.339844 3-.539062 3.960937-.199219.960938-.621094 2.179688-1.257813 3.660157-.644531 1.480469-1.703125 2.578125-3.183593 3.300781-1.480469.71875-3.339844 1.078125-5.578126 1.078125-7.28125 0-10.921874-4-10.921874-12v-31.800781c0-7.996094 3.601562-12 10.800781-12 6.878906 0 10.441406 3.601562 10.679687 10.800781.242188 3.761719 3.363282 5.640625 9.363282 5.640625 3.359374 0 5.757812-.617188 7.199218-1.859375 1.4375-1.238281 2.160156-3.578125 2.160156-7.019531 0-7.441406-2.820312-13.28125-8.460937-17.523438-5.640625-4.238281-12.863281-6.359375-21.660156-6.359375-8.5625 0-15.5 2.28125-20.820313 6.839844-5.320312 4.5625-7.980468 11.722656-7.980468 21.480469v31.800781c0 9.761719 2.660156 16.917969 7.980468 21.480469zm0 0"/><path d="m295.558594 219.835938c1.839844 1 4.039062 1.5 6.601562 1.5 2.558594 0 4.757813-.5 6.597656-1.5 1.839844-1 2.761719-2.421876 2.761719-4.261719v-28.921875h7.917969l16.441406 31.921875c1.199219 2.320312 3.199219 3.480469 6 3.480469 2.800782 0 5.460938-1.039063 7.980469-3.121094 2.519531-2.078125 3.78125-4.277344 3.78125-6.601563 0-.878906-.203125-1.597656-.601563-2.160156l-14.640624-26.519531c9.679687-3.757813 14.519531-11.878906 14.519531-24.359375 0-17.117188-9.839844-25.679688-29.519531-25.679688h-24.839844c-1.679688 0-3.058594.5625-4.140625 1.679688-1.078125 1.121093-1.617188 2.441406-1.617188 3.960937v76.320313c-.003906 1.839843.917969 3.261719 2.757813 4.261719zm15.960937-69.902344h11.878907c3.519531 0 6.199218.863281 8.039062 2.582031s2.761719 4.578125 2.761719 8.578125c0 4.003906-.921875 6.859375-2.761719 8.582031-1.839844 1.71875-4.519531 2.578125-8.039062 2.578125h-11.878907zm0 0"/><path d="m377.640625 219.835938c1.835937 1 4.039063 1.5 6.597656 1.5 2.5625 0 4.757813-.5 6.601563-1.5 1.839844-1 2.757812-2.421876 2.757812-4.261719v-46.199219l11.402344 20.878906c1.199219 2.320313 3.15625 3.480469 5.878906 3.480469 2.800782 0 4.878906-1.160156 6.238282-3.480469l11.523437-19.679687v45c0 1.839843.917969 3.261719 2.757813 4.261719 1.839843 1 4.039062 1.5 6.601562 1.5 2.558594 0 4.757812-.5 6.597656-1.5s2.761719-2.421876 2.761719-4.261719v-72.601563c0-3.199218-.898437-5.558594-2.699219-7.078125-1.800781-1.519531-4.019531-2.28125-6.660156-2.28125-3.601562 0-6.34375.539063-8.222656 1.621094-1.878906 1.078125-3.976563 3.660156-6.296875 7.738281l-12.363281 21.601563-12.359376-21.601563c-2.320312-4.078125-4.417968-6.660156-6.296874-7.738281-1.882813-1.082031-4.621094-1.621094-8.222657-1.621094-2.640625 0-4.859375.761719-6.660156 2.28125s-2.699219 3.878907-2.699219 7.078125v72.601563c0 1.839843.917969 3.261719 2.761719 4.261719zm0 0"/><path d="m266 382c0 5.523438-4.476562 10-10 10s-10-4.476562-10-10 4.476562-10 10-10 10 4.476562 10 10zm0 0"/></svg>