<svg height="483pt" style="fill: white;" viewBox="-98 0 483 483" width="483pt" xmlns="http://www.w3.org/2000/svg"><path d="m286 39.15625c0-21.625-17.53125-39.15625-39.15625-39.15625h-207.6875c-21.625 0-39.15625 17.53125-39.15625 39.15625v404.6875c0 21.625 17.53125 39.15625 39.15625 39.15625h207.6875c21.625 0 39.15625-17.53125 39.15625-39.15625zm-130.230469 389.785156c0 7.050782-5.714843 12.769532-12.769531 12.769532s-12.769531-5.71875-12.769531-12.769532c0-7.054687 5.714843-12.773437 12.769531-12.773437 7.050781.007812 12.761719 5.722656 12.769531 12.773437zm3.179688-41.625-4.957031-8.90625c-.007813-.011718-.011719-.023437-.019532-.035156l-28.117187-50.476562c4.566406-2.796876 10.484375-1.914063 14.035156 2.089843l10.203125 11.703125c2.191406 2.511719 5.714844 3.402344 8.835938 2.230469 3.125-1.171875 5.195312-4.160156 5.191406-7.496094-.019532-28.667969-.023438-66.078125.023437-85.289062 0-1.738281 1.660157-2.132813 2.632813-2.132813h3.921875c1.3125 0 2.636719.613282 2.640625 2.140625.003906 4.628907-.28125 66.964844-.285156 67.601563 0 .351562-.054688.660156-.054688 1v3.28125c0 4.417968 3.582031 8 8 8s8-3.582032 8-8v-19.234375c0-.519531.660156-.792969 1.179688-.792969h7.972656c.226562-.03125.449218.042969.613281.195312.164063.15625.25.375.234375.597657v25.488281c0 4.417969 3.582031 8 8 8s8-3.582031 8-8v-19.226562c.070312-.574219.535156-1.015626 1.109375-1.054688h7.902344c.546875.050781.972656.503906.984375 1.054688v19.226562c0 4.417969 3.582031 8 8 8 4.421875 0 8-3.582031 8-8v-2.882812c-.054688-.746094.164062-1.488282.617187-2.082032.292969-.277344.695313-.40625 1.09375-.351562l4.191407.011718c.679687-.035156 1.347656.210938 1.84375.679688.496093.46875.777343 1.117188.785156 1.800781.042968 16.472657.039062 16.773438.023437 24.867188-.007812 4.300781-.019531 10.8125-.03125 23.085937-.011719 14.65625-11.867187 26.542969-26.519531 26.589844h-40.890625c-9.628906-.03125-18.488281-5.265625-23.160156-13.683594zm-60.207031-104.316406c-4.238282-.039062-8.261719-1.875-11.074219-5.046875-2.402344-2.671875-3.546875-6.238281-3.148438-9.808594l10.125-88.144531h8.355469v20.78125c0 4.421875 3.582031 8 8 8s8-3.578125 8-8v-20.78125h50v20.78125c0 4.421875 3.582031 8 8 8s8-3.578125 8-8v-20.78125h6.894531l10.125 88.03125c.394531 3.53125-.753906 7.058594-3.148437 9.683594-2.488282 2.738281-5.914063 4.4375-9.601563 4.757812.039063-14.925781.074219-29.179687.070313-31.355468-.015625-10.199219-8.199219-18.117188-18.636719-18.117188h-3.917969c-4.90625-.070312-9.640625 1.824219-13.144531 5.265625-3.5 3.441406-5.476563 8.140625-5.492187 13.050781-.019532 8-.027344 18.683594-.03125 31.683594zm70.257812-119h-50v-7.769531c0-12.800781 11.234375-23.207031 25-23.207031s25 10.410156 25 23.207031zm96.523438 162.417969c-.082032-10.222657-8.40625-18.460938-18.628907-18.441407l-4.199219-.007812c-.628906 0-1.246093-.027344-1.859374.035156-1.019532-8.53125-8.234376-14.964844-16.824219-15h-7.902344c-1.476563.015625-2.945313.226563-4.371094.628906-.878906-1.171874-1.910156-2.21875-3.0625-3.121093.75-.679688 1.460938-1.394531 2.136719-2.144531 5.414062-6.03125 7.996094-14.082032 7.101562-22.132813l-10.9375-95.117187c-.460937-4.042969-3.878906-7.105469-7.949218-7.117188h-14.027344v-7.769531c0-21.621094-18.414062-39.207031-41-39.207031s-41 17.585937-41 39.207031v7.769531h-15.488281c-4.074219.015625-7.488281 3.074219-7.949219 7.117188l-10.941406 95.101562c-.894532 8.125 1.683594 16.25 7.101562 22.375 5.847656 6.578125 14.21875 10.359375 23.019532 10.40625h49.367187v17.101562c-10.03125-7.734374-24.085937-7.484374-33.835937.597657l-3.652344 2.746093c-3.144532 2.363282-4.050782 6.6875-2.117188 10.109376l24.835938 44.445312h-117.339844v-280h254v280h-4.480469c.011719-12 .027344-18.46875.035157-22.742188.015624-8.121093.015624-8.320312-.03125-24.839843zm-226.378907-310.417969h207.710938c12.769531 0 23.144531 10.714844 23.144531 23.480469v38.519531h-254v-38.519531c0-12.765625 10.375-23.480469 23.144531-23.480469zm207.710938 452h-207.710938c-12.769531 0-23.144531-10.714844-23.144531-23.480469v-54.519531h126.25l2.722656 4.992188c1.113282 2 2.382813 3.910156 3.800782 5.707031-11.929688-2.453125-24.113282 2.863281-30.429688 13.28125-6.3125 10.414062-5.390625 23.675781 2.300781 33.117187 7.691407 9.445313 20.492188 13.027344 31.96875 8.949219 11.476563-4.074219 19.148438-14.929687 19.160157-27.109375.003906-5.074219-1.34375-10.054688-3.90625-14.433594 4.570312 1.644532 9.386718 2.488282 14.242187 2.5h40.890625c17.464844.003906 33.140625-10.71875 39.460938-27h7.539062v54.515625c0 12.765625-10.375 23.480469-23.144531 23.480469zm0 0"/><path d="m109.246094 53h67.507812c4.417969 0 8-3.582031 8-8s-3.582031-8-8-8h-67.507812c-4.417969 0-8 3.582031-8 8s3.582031 8 8 8zm0 0"/></svg>